# xmcd CD database file
#
# Track frame offsets:
#	150
#	15032
#	30147
#	45375
#	59175
#	73825
#	87800
#	98688
#	111705
#	124070
#	136688
#	144964
#	150941
#	160369
#	168806
#
# Disc length: 2351 seconds
#
# Revision: 0
# Processed by: cddbd v1.5.2PL0 Copyright (c) Steve Scherf et al.
# Submitted via: ACXtractor (MTCDDB.DLL V2003.07.15)
#
DISCID=b2092d0f
DTITLE=Johnny Cash - Ring of Fire
DYEAR=2004
DGENRE=Country
TTITLE0=Long Black Veil
TTITLE1=Cat's in the Cradle
TTITLE2=Goin' By the Book
TTITLE3=As Long as I Live
TTITLE4=The Mystery of Life
TTITLE5=That's One You Owe Me
TTITLE6=Suppertime
TTITLE7=Family Bible
TTITLE8=The Big Light
TTITLE9=Sixteen Ton's
TTITLE10=Always Alone
TTITLE11=You Tell Me
TTITLE12=New Mexico
TTITLE13=Country Boy
TTITLE14=If the Good Lord's Willing
EXTD=ID3G:   2 YEAR: 2004
EXTT0=
EXTT1=
EXTT2=
EXTT3=
EXTT4=
EXTT5=
EXTT6=
EXTT7=
EXTT8=
EXTT9=
EXTT10=
EXTT11=
EXTT12=
EXTT13=
EXTT14=
PLAYORDER=
